<?xml version="1.0" encoding="UTF-8"?>
<svg id="Layer_1" data-name="Layer 1" xmlns="http://www.w3.org/2000/svg" viewBox="0 0 2048 2048">
  <defs>
    <style>
      .cls-1 {
        fill: none;
        stroke: #ee2a7b;
        stroke-miterlimit: 10;
        stroke-width: 10.13px;
      }
    </style>
  </defs>
  <path class="cls-1" d="M1482.37,738.85c-1.07-1.34-2.16-2.68-3.26-4,1.1,1.33,2.19,2.66,3.26,4Z"/>
  <path class="cls-1" d="M1483.97,740.87c1.26,1.6,2.49,3.22,3.7,4.85-1.21-1.63-2.45-3.25-3.7-4.85Z"/>
  <path class="cls-1" d="M1509.91,781.44h0s0,0,0,0c-5.86-11.51-12.7-22.61-20.43-33.27,7.74,10.65,14.58,21.76,20.44,33.27Z"/>
  <path class="cls-1" d="M1531.25,810.75c-1.28-2.38-2.59-4.7-3.94-6.93,1.35,2.23,2.66,4.54,3.94,6.93Z"/>
  <path class="cls-1" d="M1527.46,1068.69c-26.47,29.53-62.65,33.52-72.9,34.49-12.6,1.19-24.64,.28-36.05-2.19h0c10.68,18.47,18.28,37.58,18.94,54.55,3.53,89.37-85.74,137.75-108.17,146.98-159.13,65.45-265.74,7.69-271.62,4.7-27.68-14.02-118.01-59.78-122.29-137.57-1.37-24.89,6.39-47.37,18.05-66.99h0c-8.54,1.14-17.4,1.39-26.55,.52-10.25-.97-46.43-4.96-72.9-34.49-19.27-21.49-32.78-55.83-23.52-86.23,6.2-20.35,18.67-26,47.03-51.74,70.09-63.6,60.68-88.58,98.38-97.59,47.13-11.27,95.1,21.75,97.6,23.91,7.25,6.27,22.69,19.92,30.57,42.33,11.46,32.57,.32,64.74-10.77,86.99-3.45,1.43-6.93,2.96-10.43,4.58h0c3.51-1.61,6.99-3.14,10.43-4.57,37.56-15.61,71.08-20.57,90.22-22.47,19.83,.57,59.89,3.55,104.31,21.67,.4,.16,.8,.33,1.2,.49-.41-.17-.81-.33-1.2-.5-10.97-22.21-21.7-54-10.38-86.19,7.88-22.41,23.31-36.06,30.57-42.33,2.5-2.16,50.47-35.19,97.6-23.91,37.7,9.02,28.29,34,98.38,97.59,28.37,25.74,40.84,31.39,47.03,51.74,9.26,30.4-4.25,64.74-23.52,86.23Z"/>
  <path class="cls-1" d="M1552,869.23c-.24-.47-.47-.94-.69-1.42-.96-4.48-2-8.86-3.15-13.13-.32-1.21-.65-2.41-1-3.61-.75-2.63-1.53-5.22-2.34-7.77,.82,2.54,1.6,5.13,2.34,7.77,.34,1.2,.67,2.4,1,3.61,1.14,4.27,2.19,8.65,3.15,13.13,.22,.48,.45,.95,.69,1.42Z"/>
  <path class="cls-1" d="M1563,883.01c-.78-.64-1.54-1.31-2.28-2.01,.73,.7,1.49,1.37,2.28,2.01Z"/>
  <path class="cls-1" d="M1566.04,885.27c-.78-.52-1.55-1.08-2.3-1.67,.74,.58,1.51,1.13,2.3,1.67Z"/>
  <path class="cls-1" d="M1329.28,1302.52c-159.13,65.45-265.74,7.69-271.62,4.7-27.68-14.02-118.01-59.78-122.29-137.57-1.37-24.89,6.39-47.37,18.05-66.99h0c.53-.89,1.06-1.77,1.6-2.65,.55-.88,1.09-1.74,1.66-2.61,.44-.69,.89-1.38,1.35-2.06,.4-.6,.8-1.19,1.2-1.79,.41-.59,.81-1.18,1.22-1.77t0-.01c.41-.58,.82-1.16,1.24-1.74,.41-.58,.83-1.16,1.26-1.73,.42-.58,.84-1.14,1.27-1.72,0,0,0-.01,0-.01,.43-.56,.85-1.12,1.28-1.69,.43-.56,.86-1.12,1.3-1.68,.44-.56,.87-1.11,1.31-1.66,.88-1.1,1.76-2.19,2.66-3.27,.89-1.08,1.79-2.14,2.69-3.19,.45-.53,.9-1.05,1.36-1.57,.46-.52,.91-1.04,1.37-1.55,0-.01,.01-.02,.02-.02,.45-.51,.9-1.01,1.36-1.51,.46-.51,.92-1.01,1.38-1.51,.46-.5,.92-1,1.38-1.49,.92-.99,1.84-1.97,2.77-2.94,.46-.48,.92-.96,1.38-1.44,0-.01,.01-.02,.02-.03,1.84-1.89,3.68-3.74,5.5-5.53,1.38-1.35,2.74-2.67,4.1-3.97h0c.46-.43,.91-.86,1.36-1.28,2.15-2.03,4.26-3.98,6.33-5.86,.1-.09,.2-.18,.3-.27,.44-.39,.87-.78,1.29-1.17,.12-.1,.23-.2,.34-.3,2.88-2.58,5.64-5.01,8.24-7.28h0c1.15-1.01,2.28-1.99,3.37-2.94,.69-.6,1.39-1.2,2.08-1.79,.7-.59,1.39-1.18,2.09-1.76,.62-.52,1.25-1.04,1.88-1.56,.07-.06,.14-.11,.21-.17,.7-.57,1.4-1.14,2.1-1.7,.04-.03,.08-.06,.12-.1,.66-.53,1.32-1.05,1.98-1.57,.53-.42,1.05-.83,1.58-1.24,1.05-.82,2.11-1.63,3.16-2.42,.53-.39,1.06-.79,1.58-1.18,.7-.52,1.41-1.04,2.12-1.55,3.04-2.21,6.1-4.34,9.15-6.38,1.01-.68,2.03-1.35,3.05-2.01h0c1.52-.99,3.05-1.96,4.58-2.92h0c1.14-.71,2.29-1.41,3.43-2.11,0,0,0,0,0,0,3.43-2.07,6.86-4.03,10.28-5.91h0c1.01-.55,2.02-1.1,3.03-1.64h0c2.02-1.07,4.03-2.12,6.04-3.13h0c.75-.38,1.5-.75,2.26-1.12,2.25-1.11,4.5-2.18,6.74-3.21,3.51-1.62,6.99-3.14,10.43-4.58,37.56-15.61,71.08-20.57,90.22-22.47,19.83,.57,59.89,3.55,104.31,21.67,.4,.16,.8,.33,1.2,.49,.55,.22,1.09,.45,1.64,.69,.95,.39,1.9,.8,2.86,1.22,.48,.21,.96,.42,1.43,.63,1.43,.64,2.87,1.29,4.31,1.95,1.18,.55,2.36,1.1,3.55,1.67,1.18,.57,2.37,1.14,3.56,1.74,.5,.24,.99,.49,1.49,.74,.69,.35,1.39,.7,2.08,1.06,2.38,1.23,4.76,2.51,7.15,3.83,.6,.33,1.19,.67,1.79,1,1.19,.67,2.39,1.36,3.58,2.06,.45,.26,.91,.53,1.36,.8,.37,.22,.73,.44,1.1,.66,.99,.59,1.97,1.19,2.96,1.8,.59,.36,1.17,.73,1.76,1.1,.69,.44,1.38,.87,2.07,1.31,.51,.33,1.01,.65,1.51,.98,1.19,.78,2.39,1.57,3.58,2.37,.46,.3,.91,.62,1.37,.93,.03,.02,.05,.04,.08,.06,.36,.25,.73,.5,1.1,.75,.97,.67,1.94,1.35,2.91,2.04,.56,.4,1.12,.8,1.68,1.21,1.19,.86,2.37,1.73,3.56,2.62,.59,.44,1.18,.89,1.78,1.34,.23,.18,.46,.35,.69,.54,.05,.03,.1,.07,.15,.11,.52,.39,1.03,.79,1.54,1.19,.69,.54,1.39,1.09,2.08,1.65,.43,.34,.86,.69,1.29,1.03l.09,.08c.4,.33,.82,.66,1.22,.99,.22,.18,.45,.36,.67,.55,.62,.52,1.26,1.05,1.9,1.61,.18,.15,.35,.3,.53,.46,.83,.72,1.68,1.47,2.55,2.25,.25,.22,.5,.45,.75,.68,.5,.46,1,.92,1.52,1.4,.51,.48,1.02,.96,1.54,1.45h.01c.77,.75,1.56,1.5,2.36,2.28,1.07,1.04,2.15,2.11,3.25,3.21,.27,.28,.55,.56,.83,.84,0,0,0,0,.02,.01h0c.55,.56,1.1,1.12,1.65,1.7,.56,.58,1.12,1.16,1.69,1.76,1.41,1.48,2.83,3.01,4.27,4.58,.58,.63,1.15,1.27,1.73,1.91,.04,.04,.07,.08,.11,.12,.04,.04,.07,.08,.11,.12,.33,.37,.66,.74,.99,1.11,.6,.68,1.21,1.37,1.82,2.06,.6,.69,1.21,1.4,1.82,2.1,.81,.94,1.62,1.89,2.43,2.86,.41,.48,.82,.97,1.22,1.45,.41,.49,.81,.98,1.22,1.47,.41,.49,.81,.99,1.21,1.48,.41,.5,.81,1,1.21,1.5,1.25,1.54,2.48,3.11,3.72,4.71,.77,.99,1.53,1.99,2.29,3.01,.94,1.25,1.88,2.51,2.81,3.78,2.2,3,4.36,6.07,6.45,9.17,.37,.55,.74,1.11,1.11,1.66,.37,.56,.74,1.11,1.1,1.67,.05,.07,.09,.13,.13,.2,.62,.96,1.25,1.92,1.86,2.89,.06,.09,.12,.18,.17,.27,.35,.56,.71,1.12,1.06,1.69,.36,.57,.71,1.14,1.06,1.71,.69,1.12,1.37,2.25,2.04,3.39,.34,.57,.67,1.13,1,1.7h0c10.68,18.47,18.28,37.58,18.94,54.55,3.53,89.37-85.74,137.75-108.17,146.98Z"/>
  <path class="cls-1" d="M1136.44,1192.78c16.26,1.97,69.96,6.38,122.29-27.44,34.5-22.29,52.8-51.12,61.14-66.63"/>
  <path class="cls-1" d="M1312.04,1100.28c.24-.2,5.12-4.14,10.97-2.09,4.84,1.7,6.57,6.17,6.79,6.79"/>
  <path class="cls-1" d="M1237.57,1264.9c-9.46,4.35-27.13,10.98-50.17,10.97-23.51,0-41.48-6.92-50.95-11.37"/>
  <path class="cls-1" d="M1186.61,1015.23c21.47,1.22,38.85,2.36,50.17,3.14,11.72,3.76,20.79,10.73,21.17,18.42,.34,7.01-.39,12.72-12.54,21.95-13.62,10.34-22.54,6.69-31.36,14.89-10.03,9.33-10.89,17.05-19.99,19.99-6.76,2.18-13.19,.11-14.5-.39-8.68-3.3-8.68-10.22-16.07-18.03-13.58-14.35-28.98-7.23-41.55-23.12-2.24-2.84-5.19-6.67-5.1-11.76,.2-10.65,13.17-18.88,17.25-19.99,15.42-4.18,24.86-6.66,52.52-5.1Z"/>
  <path class="cls-1" d="M1573.37,889.13c-2.11-.83-4.13-1.85-6.05-3.03-.43-.26-.86-.54-1.28-.82-.78-.52-1.55-1.08-2.3-1.67-.25-.19-.5-.39-.74-.59h0c-.78-.64-1.54-1.31-2.28-2.01-.18-.17-.37-.34-.55-.53-1.27-1.25-2.47-2.59-3.58-4-.95-1.22-1.85-2.49-2.67-3.82-.27-.44-.54-.89-.81-1.34-.13-.23-.26-.46-.38-.68-.25-.46-.5-.92-.73-1.39-.24-.47-.47-.94-.69-1.42-.96-4.48-2-8.86-3.15-13.13-.32-1.21-.65-2.41-1-3.61-.75-2.63-1.53-5.22-2.34-7.77-.49-1.53-.99-3.04-1.5-4.53-.15-.45-.3-.89-.46-1.33-.3-.88-.62-1.75-.94-2.62-.16-.44-.32-.87-.48-1.3-.96-2.58-1.96-5.11-2.99-7.58-.28-.67-.56-1.33-.85-1.99-.57-1.32-1.15-2.62-1.74-3.91-1.47-3.21-3.01-6.32-4.61-9.3-1.28-2.38-2.59-4.7-3.94-6.93-1.35-2.23-2.73-4.38-4.15-6.45-.22-.32-.44-.64-.66-.95-.44-.63-.88-1.25-1.33-1.86-.45-.61-.9-1.22-1.35-1.81s-.91-1.18-1.37-1.77c-.69-.87-1.38-1.72-2.08-2.56-.47-.55-.94-1.1-1.41-1.64-.47-.54-.95-1.07-1.43-1.59-.48-.52-.96-1.03-1.44-1.54-.24-.25-.49-.5-.73-.75s-.49-.49-.73-.73c-.24-.24-.49-.49-.73-.72h0c-5.86-11.51-12.7-22.62-20.43-33.27-.6-.82-1.2-1.64-1.8-2.45-1.21-1.63-2.45-3.25-3.7-4.85-.53-.68-1.06-1.35-1.59-2.03-1.07-1.34-2.16-2.68-3.26-4-5.5-6.64-11.36-13.08-17.56-19.29-8.97-8.98-18.64-17.5-28.96-25.51-1.47-1.14-2.96-2.27-4.46-3.4h0c-1.5-1.12-3.01-2.24-4.54-3.34-1.52-1.1-3.06-2.19-4.61-3.27h0c-1.55-1.08-3.11-2.15-4.69-3.2h0c-1.57-1.06-3.16-2.11-4.76-3.14-4-2.59-8.09-5.1-12.24-7.55-1.66-.98-3.33-1.94-5.01-2.9-1.68-.95-3.38-1.89-5.09-2.82,7.41-9.03,16.74-18.09,28.43-26.01,33.97-22.97,68.86-23.33,86.42-23.52,15.77-.16,35.92-.37,58.79,9.41,0,0,40.98,17.6,64.67,64.68,26.31,52.29,6.35,132.61-52.14,204.15Z"/>
  <path class="cls-1" d="M1000.44,660.05c-53.15,28.84-95.41,69.25-120.9,116.63-17.49,14.14-32.08,39.17-41.56,70.76l-3.15,3.16c-2.17,18.51-15.13,33.37-31.83,36.96-1.06,.23-2.13,.42-3.22,.55-17.01-22.83-30.28-46.29-39.59-69.32,6.57-2.66,12.57-6.67,17.5-12.04,2.62-2.85,4.88-5.98,7-9.21,2.6-3.96,5-8.07,7.61-12.02,11.26-17.05,26.76-31.27,44.71-41.03,11.72-6.38,24.46-10.88,35.69-18.1,.3-.19,.6-.39,.9-.59,10.86-7.2,20.35-17.75,22.18-30.61,1.1-7.73-.64-15.63,.21-23.39,.85-7.76,5.67-16.18,13.44-16.94,6.83-.67,13.15,4.81,19.98,4.17,4.73-.45,8.78-3.85,11.22-7.93,2.45-4.08,3.55-8.8,4.62-13.43,1.1-4.75,2.1-9.92,2.1-14.84,8.77,3.41,17.79,7.95,26.75,14,10.53,7.12,19.21,15.13,26.35,23.24Z"/>
  <path class="cls-1" d="M1192.81,612.85c-7.53-34.38-15.16-81.5-5.8-96.35,13.11-20.81,40.43-33.38,63.5-24.88,12.95,4.77,23.17,15.34,29.81,27.43,6.65,12.09,10.06,25.68,12.58,39.25-5.22-29.99-11.94-62.64-35.53-81.87-18.32-14.93-45.24-18.42-66.76-8.66-30.37,13.77-45.51,50.13-43.42,83.4,1.39,21.95,8.83,42.77,18.79,62.54"/>
  <path class="cls-1" d="M1527.46,1068.69c-26.47,29.53-62.65,33.52-72.9,34.49-12.6,1.19-24.64,.28-36.05-2.19h0c10.68,18.47,18.28,37.58,18.94,54.55,3.53,89.37-85.74,137.75-108.17,146.98-159.13,65.45-265.74,7.69-271.62,4.7-27.68-14.02-118.01-59.78-122.29-137.57-1.37-24.89,6.39-47.37,18.05-66.99h0c-8.54,1.14-17.4,1.39-26.55,.52-10.25-.97-46.43-4.96-72.9-34.49-19.27-21.49-32.78-55.83-23.52-86.23,6.2-20.35,18.67-26,47.03-51.74,70.09-63.6,60.68-88.58,98.38-97.59,47.13-11.27,95.1,21.75,97.6,23.91,7.25,6.27,22.69,19.92,30.57,42.33,11.46,32.57,.32,64.74-10.77,86.99-3.45,1.43-6.93,2.96-10.43,4.58h0c3.51-1.61,6.99-3.14,10.43-4.57,37.56-15.61,71.08-20.57,90.22-22.47,19.83,.57,59.89,3.55,104.31,21.67,.4,.16,.8,.33,1.2,.49-.41-.17-.81-.33-1.2-.5-10.97-22.21-21.7-54-10.38-86.19,7.88-22.41,23.31-36.06,30.57-42.33,2.5-2.16,50.47-35.19,97.6-23.91,37.7,9.02,28.29,34,98.38,97.59,28.37,25.74,40.84,31.39,47.03,51.74,9.26,30.4-4.25,64.74-23.52,86.23Zm-365.82-454.68c1.44-.11,2.89-.21,4.33-.3,8.85-.56,17.8-.85,26.83-.86h0c.22,0,.44,0,.66,0,71.96,0,138.71,17.57,193.72,47.57,1.71,.93,3.41,1.87,5.09,2.82,1.68,.96,3.35,1.92,5.01,2.9,4.15,2.45,8.23,4.96,12.24,7.55,1.6,1.03,3.18,2.08,4.76,3.14h0c1.57,1.06,3.13,2.13,4.69,3.2h0c1.55,1.08,3.09,2.17,4.61,3.27,1.52,1.1,3.04,2.21,4.54,3.34h0c1.5,1.12,2.98,2.26,4.46,3.4,10.32,8.01,19.99,16.53,28.96,25.51,6.2,6.22,12.06,12.65,17.56,19.29,1.1,1.33,2.18,2.66,3.26,4,.53,.67,1.06,1.35,1.59,2.03,1.26,1.6,2.49,3.22,3.7,4.85,.6,.82,1.2,1.63,1.8,2.45,7.74,10.65,14.58,21.76,20.43,33.27h0c.25,.24,.49,.49,.73,.73,.25,.24,.49,.49,.73,.73s.49,.5,.73,.75c.48,.51,.96,1.02,1.44,1.54,.48,.52,.95,1.05,1.43,1.59,.47,.54,.94,1.09,1.41,1.64,.7,.84,1.39,1.69,2.08,2.56,.46,.58,.91,1.17,1.37,1.77,.45,.6,.9,1.2,1.35,1.81s.89,1.24,1.33,1.86c.22,.31,.44,.63,.66,.95,1.42,2.07,2.8,4.22,4.15,6.45,1.35,2.23,2.66,4.54,3.94,6.93,1.59,2.98,3.13,6.09,4.61,9.3,.59,1.29,1.17,2.59,1.74,3.91,.28,.66,.57,1.33,.85,1.99,1.03,2.47,2.03,5,2.99,7.58,.16,.43,.32,.86,.48,1.3,.32,.87,.63,1.74,.94,2.62,.16,.44,.31,.88,.46,1.33,.51,1.49,1.01,3,1.5,4.53,.81,2.54,1.59,5.13,2.34,7.77,.34,1.2,.67,2.4,1,3.61,1.14,4.27,2.19,8.65,3.15,13.13,.22,.48,.45,.95,.69,1.42,.23,.47,.48,.93,.73,1.39,.13,.23,.25,.46,.38,.68,.26,.46,.53,.9,.8,1.34,.83,1.33,1.72,2.6,2.67,3.82,1.11,1.42,2.31,2.76,3.58,4,.18,.19,.37,.36,.55,.53,.73,.7,1.49,1.38,2.28,2.01h0c.24,.2,.49,.4,.74,.59,.75,.59,1.51,1.14,2.3,1.67,.42,.28,.85,.56,1.28,.82,1.92,1.18,3.95,2.2,6.05,3.03h0c1.89,.74,3.84,1.34,5.85,1.77,1.92,.42,3.9,.68,5.92,.78,.6,.03,1.2,.05,1.81,.05h0c9.95,3.66,24.14,5.16,40.08,3.94-3.92,6.11-11.76,11.8-21.96,15.95-3.43,1.4-7.13,2.62-11.04,3.62,4.54,3.48,10.14,6.6,16.58,9.24,10.28,4.24,22.7,7.26,36.34,8.66-9.81,12.93-31.65,21.93-57.03,21.93-3.22,0-6.39-.15-9.48-.43,33.71,21.31,62.16,48.11,83.42,78.8,26.93,38.88,42.34,83.98,42.34,132.1,0,146.11-142.12,264.56-317.44,264.56-10.84,0-21.56-.45-32.13-1.34-51.74,15.14-107.72,23.42-166.16,23.42-64.73,0-126.44-10.15-182.71-28.55-6.81,.39-13.69,.59-20.63,.59-169.23,0-306.42-117.13-306.42-261.62,0-44.15,12.81-85.74,35.42-122.22,20.75-33.46,49.75-62.62,84.69-85.51-2.12,.13-4.27,.2-6.45,.2-25.37,0-47.22-9-57.03-21.93,14.04-1.43,26.77-4.61,37.22-9.02,7.4-3.13,13.65-6.89,18.41-11.1-5.7-1.16-11.04-2.78-15.86-4.74-10.2-4.15-18.04-9.85-21.96-15.95,15.93,1.23,30.12-.28,40.07-3.93,.61,0,1.22-.02,1.82-.05,.91-.05,1.81-.13,2.7-.24,1.09-.13,2.16-.32,3.22-.55,16.7-3.58,29.66-18.45,31.83-36.96l3.15-3.16c9.48-31.59,24.07-56.62,41.56-70.76,25.49-47.38,67.74-87.79,120.9-116.63,19.37-10.51,40.19-19.48,62.18-26.69"/>
  <path class="cls-1" d="M1161.65,614c-18.76-19.43-43.21-34.18-66.71-48.22-34.07-20.37-69.82-43.27-85.94-79.53,4.11,41.42,8.74,84.43,30.43,119.96,6.21,10.18,13.96,19.68,23.19,27.15,5.83,4.71,12.26,8.62,19.26,11.37,6.54,2.56,13.59,3.97,20.65,4.11-12.51,8.01-23.54,18.37-32.32,30.36-7.29,9.97-13.04,21.09-16.77,32.87-12.07,38.18-2.7,82.4,23.82,112.41,1.67-39.85,22.04-78.52,53.97-102.43-8.18,30.43-2.03,64.39,16.3,90.02,18.32,25.63,48.46,42.44,79.9,44.56-30.44-39.39-39.2-94.52-22.49-141.41,26.1,29.62,41.63,68.37,43.21,107.81,12.68-33.53,12.87-71.63,.54-105.29"/>
  <path class="cls-1" d="M877.23,714.02c-.98,4-2.19,7.92-3.63,11.77-.3,.2-.6,.39-.9,.59-11.22,7.22-23.96,11.73-35.69,18.1-17.95,9.77-33.44,23.99-44.71,41.03-2.61,3.95-5.01,8.06-7.61,12.02-9.71,.22-20.39-1.6-28.89-3.47-16.4-3.59-31.89-11.47-44.25-22.86-19.37-17.86-30.75-44.1-30.54-70.44,1.31,16.9,16.12,31.72,33.01,33.03,16.9,1.32,33.83-11.02,37.75-27.52,3.91-16.49-5.67-35.12-21.35-41.54-10.29-4.21-22.49-3.66-31.61-10.03-9.29-6.49-12.85-18.38-15.22-29.46-1.99-9.32-3.6-18.88-2.48-28.35,1.12-9.46,5.3-18.92,12.95-24.59,11.49,28.07,33.21,51.83,60.13,65.79,5.99,3.1,13.13,5.76,19.32,3.07,8.56-3.72,10.18-14.95,10.43-24.28,.95-34.84,.03-69.74-2.76-104.48,21.12,13.01,40.69,30.61,49.35,53.86,8.66,23.25,3.63,52.78-16.54,67.22-5.03,3.6-10.79,6.18-15.48,10.21-4.69,4.03-8.3,10.2-6.96,16.24,1.51,6.78,9.01,10.98,15.95,10.67,6.94-.31,13.25-4.12,18.6-8.56,19.29-16.05,29.64-42.22,26.54-67.12,10.42,14.5,14.99,33.09,12.46,50.77-2.53,17.68-12.13,34.25-26.2,45.23-8.6,6.71-19.86,13.21-20.37,24.1,11.57,2.41,24.17-.83,33.15-8.52,8.97-7.69,14.1-19.65,13.5-31.45,6.94,2.69,11.63,9.59,13.25,16.86,1.63,7.26,.59,14.87-1.18,22.1Z"/>
  <path class="cls-1" d="M1093.26,986.35c-3.45,1.43-6.93,2.96-10.43,4.58-2.24,1.03-4.49,2.1-6.74,3.21-.75,.37-1.5,.74-2.26,1.12h0c-2.01,1.01-4.02,2.05-6.04,3.13h0c-1.01,.54-2.02,1.08-3.03,1.64h0c-3.42,1.87-6.84,3.84-10.28,5.91,0,0,0,0,0,0-1.14,.69-2.29,1.39-3.43,2.11h0c-1.52,.95-3.05,1.92-4.58,2.92h0c-1.01,.66-2.03,1.33-3.05,2.01-3.05,2.05-6.11,4.17-9.15,6.38-.71,.51-1.41,1.03-2.12,1.55-.53,.39-1.06,.79-1.58,1.18-1.06,.79-2.11,1.6-3.16,2.42-.53,.41-1.05,.82-1.58,1.24-.66,.52-1.33,1.04-1.98,1.57-.04,.04-.08,.07-.12,.1-.7,.56-1.4,1.13-2.1,1.7-.07,.06-.14,.12-.21,.17-.63,.52-1.26,1.03-1.88,1.56-.7,.58-1.4,1.16-2.09,1.76-.69,.59-1.39,1.18-2.08,1.79-1.09,.95-2.21,1.92-3.37,2.94h0c-2.6,2.27-5.37,4.7-8.24,7.29-.11,.1-.22,.2-.34,.3-.43,.38-.86,.77-1.29,1.17-.1,.09-.2,.18-.3,.27-2.07,1.87-4.19,3.83-6.34,5.86-.45,.42-.9,.85-1.35,1.28h0c-1.36,1.29-2.72,2.61-4.1,3.97-1.83,1.79-3.67,3.63-5.5,5.53-.01,.01-.02,.02-.02,.03-.47,.48-.93,.95-1.38,1.44-.93,.97-1.85,1.94-2.77,2.94-.47,.5-.92,.99-1.38,1.49-.47,.5-.92,1-1.38,1.51-.46,.5-.91,1-1.36,1.51,0,0-.01,.01-.02,.02-.46,.51-.91,1.03-1.37,1.55-.46,.52-.91,1.04-1.36,1.57-.91,1.05-1.81,2.12-2.69,3.19-.9,1.07-1.78,2.17-2.66,3.27-.44,.55-.88,1.1-1.31,1.66-.44,.56-.87,1.12-1.3,1.68-.44,.56-.86,1.12-1.28,1.69,0,0,0,0,0,.01-.43,.57-.86,1.14-1.27,1.72-.43,.57-.85,1.15-1.26,1.73-.42,.58-.83,1.16-1.24,1.74t0,.01c-.42,.59-.82,1.17-1.22,1.77-.41,.59-.81,1.19-1.2,1.79-.46,.68-.91,1.37-1.35,2.06-.56,.87-1.11,1.73-1.66,2.61-.54,.88-1.08,1.76-1.6,2.64-8.54,1.15-17.4,1.39-26.55,.52-10.25-.97-46.43-4.96-72.9-34.49-19.27-21.49-32.78-55.83-23.52-86.23,6.2-20.35,18.67-26,47.03-51.74,70.09-63.6,60.68-88.58,98.38-97.59,47.13-11.27,95.1,21.75,97.6,23.91,7.25,6.27,22.69,19.92,30.57,42.33,11.46,32.57,.32,64.74-10.77,86.99Z"/>
  <path class="cls-1" d="M1527.46,1068.69c-26.47,29.53-62.65,33.52-72.9,34.49-12.6,1.19-24.64,.28-36.05-2.19-.33-.57-.66-1.13-1-1.7-.66-1.13-1.34-2.26-2.04-3.39-.34-.57-.7-1.14-1.06-1.71-.35-.57-.7-1.13-1.06-1.69-.06-.09-.12-.18-.17-.27-.61-.97-1.24-1.93-1.86-2.89-.05-.07-.09-.13-.13-.2-.36-.56-.73-1.11-1.1-1.67-.36-.56-.73-1.11-1.11-1.66-2.1-3.1-4.25-6.17-6.45-9.17-.93-1.27-1.86-2.53-2.81-3.78-.76-1.01-1.52-2.01-2.29-3.01-1.24-1.59-2.47-3.16-3.72-4.71-.4-.51-.8-1.01-1.21-1.5-.41-.5-.81-.99-1.21-1.48-.41-.5-.81-.99-1.22-1.47-.4-.49-.81-.97-1.22-1.45-.81-.97-1.62-1.92-2.43-2.86-.6-.7-1.21-1.41-1.82-2.1-.61-.69-1.22-1.38-1.82-2.06-.33-.37-.66-.74-.99-1.11-.04-.04-.07-.08-.11-.12-.03-.04-.07-.08-.1-.12h0c-.57-.64-1.15-1.28-1.73-1.91-1.43-1.57-2.86-3.1-4.27-4.58-.56-.59-1.12-1.18-1.69-1.76-.55-.57-1.1-1.13-1.65-1.69h0c-.28-.29-.56-.57-.84-.85-1.09-1.1-2.18-2.18-3.25-3.21-.79-.77-1.58-1.53-2.36-2.27h-.01c-.52-.5-1.03-.98-1.54-1.46-.52-.48-1.02-.94-1.52-1.4-.25-.23-.5-.46-.75-.68-.87-.78-1.72-1.53-2.55-2.25-.18-.16-.35-.31-.53-.46-.65-.56-1.28-1.09-1.9-1.61-.23-.19-.45-.37-.67-.56-.41-.33-.82-.66-1.22-.99l-.09-.08c-.43-.34-.86-.69-1.29-1.03-.69-.56-1.39-1.1-2.08-1.65-.51-.4-1.03-.8-1.54-1.19-.05-.04-.1-.08-.15-.11-.23-.18-.47-.36-.69-.54-.59-.45-1.18-.9-1.78-1.34-1.18-.89-2.37-1.76-3.56-2.62-.56-.41-1.12-.82-1.68-1.21-.97-.69-1.94-1.37-2.91-2.04-.36-.25-.73-.51-1.1-.75-.03-.02-.06-.04-.08-.06-.05-.04-.1-.07-.14-.1-.41-.28-.83-.56-1.23-.83-1.19-.8-2.38-1.59-3.58-2.37-.51-.33-1.01-.66-1.51-.98-.69-.44-1.38-.88-2.07-1.31-.59-.37-1.17-.74-1.76-1.1-.99-.61-1.97-1.2-2.96-1.8-.37-.22-.73-.44-1.1-.66-.45-.27-.91-.54-1.36-.8-1.19-.7-2.39-1.39-3.58-2.06-.6-.34-1.19-.68-1.79-1-2.39-1.33-4.77-2.61-7.15-3.83-.69-.35-1.39-.71-2.08-1.06-2.88-1.47-5.74-2.85-8.6-4.16-1.44-.67-2.88-1.32-4.31-1.94-.48-.22-.96-.43-1.43-.63-.96-.42-1.91-.83-2.86-1.22-.55-.24-1.09-.47-1.64-.69-.41-.17-.81-.33-1.2-.5-10.97-22.21-21.7-54-10.38-86.19,7.88-22.41,23.31-36.06,30.57-42.33,2.5-2.16,50.47-35.19,97.6-23.91,37.7,9.02,28.29,34,98.38,97.59,28.37,25.74,40.84,31.39,47.03,51.74,9.26,30.4-4.25,64.74-23.52,86.23Z"/>
  <path class="cls-1" d="M1083.05,985.3c0,1.9-.08,3.77-.23,5.63h0c-2.24,1.04-4.49,2.11-6.74,3.21-.75,.37-1.5,.74-2.26,1.12h0c-2.01,1.02-4.02,2.06-6.04,3.13h0c-1.01,.54-2.02,1.08-3.03,1.64h0c-3.42,1.88-6.84,3.85-10.28,5.91,0,0,0,0,0,0-1.14,.69-2.29,1.39-3.43,2.11h0c-1.52,.96-3.05,1.93-4.58,2.92h0c-1.01,.66-2.03,1.33-3.05,2.01-3.05,2.05-6.11,4.17-9.15,6.38-.7,.52-1.41,1.03-2.12,1.55-.53,.39-1.06,.79-1.58,1.18-1.06,.79-2.11,1.6-3.16,2.42-.53,.41-1.05,.82-1.58,1.24-.66,.52-1.33,1.05-1.98,1.57-.04,.04-.08,.07-.12,.1-.7,.56-1.4,1.13-2.1,1.7-.07,.06-.14,.12-.21,.17-.63,.52-1.26,1.04-1.88,1.56-.7,.58-1.39,1.17-2.09,1.76-.69,.59-1.39,1.19-2.08,1.79-1.09,.95-2.22,1.92-3.37,2.93h0c-2.6,2.27-5.37,4.7-8.24,7.29-.11,.1-.22,.2-.34,.3-.43,.38-.86,.77-1.29,1.17-.1,.09-.2,.18-.3,.27-2.07,1.88-4.18,3.83-6.33,5.86h-.01c-29.47-8.01-51.14-34.95-51.14-66.95,0-38.31,31.06-69.37,69.37-69.37s69.37,31.06,69.37,69.37Z"/>
  <path class="cls-1" d="M1437.56,982.79c0,33.73-24.08,61.85-55.98,68.08-9.25-10.28-18.12-18.84-25.25-24.67-18.78-15.38-38.2-26.95-57.09-35.67-.28-2.54-.43-5.13-.43-7.75,0-38.31,31.06-69.37,69.37-69.37s69.37,31.06,69.37,69.37Z"/>
</svg>