<?xml version="1.0" encoding="utf-8"?>
<!-- Generator: Adobe Illustrator 26.5.0, SVG Export Plug-In . SVG Version: 6.00 Build 0)  -->
<svg version="1.1" id="Layer_1" xmlns="http://www.w3.org/2000/svg" xmlns:xlink="http://www.w3.org/1999/xlink" x="0px" y="0px"
	 viewBox="0 0 512 512" style="enable-background:new 0 0 512 512;" xml:space="preserve">
<style type="text/css">
	.st0{fill:#F826EB;}
</style>
<path class="st0" d="M496.3,226.1c-16.7-60.3-43.3-105.1-63-133.2c-13.8-6.6-30.2-13.3-49-19.1c-21-6.4-40.3-10.2-56.8-12.4
	c-4.3,9.1-8.6,18.2-12.9,27.4c-16.3-2.9-36-5.1-58.3-5.2c-22.8,0-42.8,2.2-59.4,5.2c-4.6-9.5-9.3-18.9-13.9-28.4
	c-16.6,3-35,7.3-54.7,13.4C109.7,79.6,93,86,78.3,92.4c-18.8,26.9-41.6,65.9-57.8,116.7c-23.6,74-22.1,138.6-18.1,177.6
	c15.4,11.9,35.2,25.1,59.4,37.2c25.9,13,50,21.1,69.7,26.3c9.1-14.8,18.2-29.6,27.4-44.4c-7.5-2.5-15.9-5.9-24.8-10.3
	c-6.7-3.4-12.8-6.9-18.1-10.3c3.4-2.6,6.9-5.2,10.3-7.7c24.2,11.2,68.8,28,127,28.4c61,0.4,107.7-17.5,132.1-28.9
	c3.3,3.1,6.5,6.2,9.8,9.3c-6.1,3.6-13,7.3-20.6,10.8c-7.7,3.5-15,6.4-21.7,8.8c8.8,15.3,17.5,30.6,26.3,45.9
	c21-6.4,45.7-15.6,72.3-29.4c23.1-12,42.5-24.8,58.3-36.6C513.4,350,514.8,292.8,496.3,226.1L496.3,226.1z M217.1,277.7
	c-1.6,26.2-24.5,52-50.6,49.5c-27-2.5-44.6-33.9-40.3-60.4c3.6-22.4,23.6-45.5,48.5-43.9C201,224.7,218.6,252.8,217.1,277.7
	L217.1,277.7z M347.2,327.3c-27.3,3.2-52.3-25-52.1-53.2c0.2-22.9,17-49,42.8-50.6c25.4-1.6,44.8,21.5,48.5,43.4
	C390.9,293.4,373.4,324.2,347.2,327.3z"/>
</svg>
